<?xml version="1.0" encoding="UTF-8"?>
<svg width="422px" height="135px" viewBox="0 0 422 135" version="1.1" xmlns="http://www.w3.org/2000/svg" xmlns:xlink="http://www.w3.org/1999/xlink">
    <!-- Generator: Sketch 49.3 (51167) - http://www.bohemiancoding.com/sketch -->
    <title>Group 2</title>
    <desc>Created with Sketch.</desc>
    <defs>
        <linearGradient x1="14.116%" y1="0%" x2="141.87%" y2="170.518%" id="linearGradient-1">
            <stop stop-color="#0060EC" offset="0%"></stop>
            <stop stop-color="#0656E2" offset="20%"></stop>
            <stop stop-color="#0A4DD8" offset="40%"></stop>
            <stop stop-color="#0C43CE" offset="60%"></stop>
            <stop stop-color="#0C39C4" offset="80%"></stop>
            <stop stop-color="#0B2FBA" offset="100%"></stop>
        </linearGradient>
        <polygon id="path-2" points="0 0 105.478262 0 105.478262 105.575548 0 105.575548"></polygon>
    </defs>
    <g id="Page-1" stroke="none" stroke-width="1" fill="none" fill-rule="evenodd">
        <g id="blog-logo-v2" transform="translate(-18.000000, -25.000000)">
            <g id="Group-2" transform="translate(18.000000, 25.000000)">
                <g id="FareFirst-Circle">
                    <circle id="Oval-2" fill="url(#linearGradient-1)" cx="67.5" cy="67.5" r="67.5"></circle>
                    <g id="group-(1)" transform="translate(14.000000, 14.000000)">
                        <g id="Group" transform="translate(0.235962, 0.236180)">
                            <g id="Clipped">
                                <mask id="mask-3" fill="white">
                                    <use xlink:href="#path-2"></use>
                                </mask>
                                <g id="b"></g>
                                <path d="M65.2799616,23.8386527 L64.6207225,24.0107868 C62.4661877,24.5703438 60.3985034,25.4230206 58.4754672,26.5449825 C52.9173871,29.7843268 48.8436916,35.0690242 47.1231781,41.2720064 L38.7537073,41.2720064 C39.709083,36.5521176 41.7032832,32.104641 44.5913176,28.2529347 C47.9820026,23.7086921 52.4917871,20.1219188 57.6805585,17.8426501 C59.7809586,16.918887 61.9735549,16.2213278 64.2213573,15.7617408 L65.2799616,15.5417917 L65.2799616,23.8386527 Z M52.6684302,0 C24.76064,0 1.90701641,21.6487252 0,49.0677661 L70.7296719,49.0677661 L66.3653177,34.3445673 C66.3708146,34.131156 66.460957,33.9287123 66.6158394,33.7819408 C66.7707217,33.6351693 66.9776032,33.5561433 67.1907997,33.5623137 L71.3468726,33.5852649 L79.9265356,48.9377092 L79.9380006,48.9606604 L79.9972366,49.0677661 L87.9061954,49.0677661 C90.1705386,49.0677661 92.0087648,50.9076877 92.0087648,53.1722067 C92.0066565,55.4388988 90.1707995,57.2755932 87.9061954,57.2766474 L79.9150705,57.2766474 L71.2494198,72.7878376 L67.0971686,72.8088762 C66.6423892,72.8088762 66.2697758,72.4588703 66.2697758,72.0266226 L70.6436841,57.2766474 L0.0573251427,57.2766474 C0.0592359808,57.3722775 0.0687901712,57.4755579 0.0783443616,57.5711879 C1.50574041,73.4209083 9.93062555,87.2413596 22.2440662,95.9341289 L22.2497987,95.9341289 C22.3147672,95.9800313 22.3740032,96.0221085 22.4370608,96.0622732 C23.5377036,95.57456 24.7893025,94.8343836 25.7523649,94.2778169 C33.8991572,89.6221304 38.6741292,80.7184536 38.048608,71.349562 L38.048608,65.7552055 L46.1926,65.7552055 L46.1734916,75.0045416 L46.1601157,75.0274928 C45.9011117,79.2652204 44.8123086,83.4106473 42.9556402,87.2279714 C42.0272946,89.1415398 40.9129981,90.9589866 39.6288711,92.6540191 C37.1740822,95.8661298 34.190644,98.6362948 30.8065317,100.845687 C37.6712403,103.973483 45.1278489,105.586593 52.6703411,105.575548 C81.833552,105.575548 105.478262,81.9434562 105.478262,52.7858614 C105.478262,23.6320919 81.833552,0 52.6703411,0 L52.6684302,0 Z" id="Shape" fill="#FFFFFF" fill-rule="nonzero" mask="url(#mask-3)"></path>
                            </g>
                        </g>
                    </g>
                </g>
                <g id="Group" transform="translate(152.000000, 2.000000)"></g>
                <g id="text-group" transform="translate(149.000000, 19.000000)">
                    <text id="Blog" font-family="Montserrat-Italic, Montserrat" font-size="32" font-style="italic" font-weight="normal" letter-spacing="0.0225051586" fill="#0A49D4">
                        <tspan x="4.86343413" y="97.452337">Blog</tspan>
                    </text>
                    <path d="M31.6864722,0.194522079 C30.8449595,0.0850709986 29.9959084,0.03220092 29.1460556,0.036331336 C26.7798389,0.036331336 24.575725,0.370537131 22.5385528,1.04786088 C20.567724,1.6797925 18.7409234,2.64217434 17.15045,3.88638209 C15.5843815,5.13288361 14.2853752,6.63819635 13.3204694,8.32463505 C12.3018722,10.1348967 11.6500698,12.1009572 11.3970111,14.1264476 L11.118775,16.2564526 L5.95326111,16.2564526 L5.31694722,20.6501448 C5.19355556,21.4410985 5.35565833,22.0382128 5.82503056,22.452628 C6.30891944,22.855903 6.92345833,23.1656004 7.68316389,23.3482995 L10.0880917,23.8585204 L5,62.421413 L9.97437778,62.421413 C11.7647667,62.421413 13.1293333,62.0248222 14.0729167,61.2516928 C15.0237583,60.4718792 15.7544306,59.3890525 16.2842889,58.0254928 L18.4109806,51.749108 L22.0861167,23.894169 L29.8476944,23.894169 L30.9558,16.2564526 L22.6716222,16.2564526 L22.9135667,14.4873899 C23.2280944,12.0365474 23.9781222,10.3209577 25.1830056,9.32725243 C26.3757917,8.3446874 27.9823028,7.85006282 30.0122167,7.85006282 C30.6170778,7.85006282 31.2243583,7.76094127 31.8195417,7.56932995 C32.4268222,7.37549059 32.8018361,6.96330344 32.9276472,6.33945263 L34.0333333,0.722567235 C33.2699946,0.481563208 32.4844888,0.304823921 31.6864722,0.194522079 Z M52.7492849,36.3087719 C52.3319839,37.9971742 51.8219493,39.5833212 51.2191811,41.0767249 C50.6906162,42.4359079 50.0353501,43.7395686 49.2625029,44.9695623 C48.5530911,46.0777249 47.7973126,46.9528405 47.0067589,47.599665 C46.2046136,48.2345994 45.3839216,48.5580117 44.5400461,48.5580117 C43.9929181,48.5580117 43.4921569,48.4391101 43.028489,48.1799047 C42.5372552,47.8965769 42.1265353,47.4867568 41.8368627,46.990889 C41.4983852,46.4439418 41.2340946,45.7352884 41.0347174,44.8506607 C40.8353403,43.9731671 40.7333333,42.903053 40.7333333,41.6403183 C40.7333333,39.4287491 41.0347174,37.3337035 41.653714,35.3765836 C42.2564821,33.4313539 43.1189043,31.7144153 44.2386621,30.2400358 C45.3219606,28.797531 46.6903348,27.6062479 48.2540254,26.7443296 C49.8445003,25.8760385 51.6223268,25.4319955 53.4239216,25.4530586 L54.1333333,25.4530586 L52.7492849,36.3087719 Z M61.8027872,18.8664116 C59.9034222,18.6390763 57.9901064,18.5235829 56.0746141,18.520642 C52.2067921,18.520642 48.6569383,19.1621641 45.4250526,20.4517323 C42.1813025,21.7521737 39.38603,23.48972 37.0392349,25.6817684 C34.6741642,27.8794534 32.8036496,30.4818483 31.534114,33.3408899 C30.2185833,36.2722889 29.549994,39.413554 29.5669825,42.5831574 C29.5669825,44.8013017 29.8754591,46.7171694 30.4805478,48.3459831 C31.0951281,49.9726222 31.9042859,51.3056834 32.9293774,52.3603892 C33.9449773,53.4063964 35.1195613,54.1914455 36.4412649,54.7133618 C37.7459638,55.2257581 39.1506548,55.4898837 40.5701055,55.4897123 C42.9667314,55.4897123 45.1545424,54.9069058 47.1572674,53.7434674 C49.1599924,52.580029 50.9586483,50.977311 52.5603537,48.9527108 L52.5603537,51.5405457 C52.5603537,52.0320169 52.6173032,52.4778204 52.738321,52.8910041 C52.8498471,53.3128864 53.0539163,53.6673546 53.3434097,53.9631071 C53.6423947,54.2675583 54.0315498,54.5024206 54.5274853,54.6720434 C55.0305394,54.8481902 55.6427468,54.9330016 56.3807178,54.9330016 L62.7258442,54.9330016 L67.5333333,20.1059627 C65.6750412,19.5123491 63.7545879,19.0969437 61.8027872,18.8664116 Z M95.0788944,18.5381515 C93.8449778,18.6251373 92.6400944,18.9796044 91.4642444,19.6037274 C90.285975,20.2256757 89.1391583,21.1064068 88.0189556,22.2393966 C86.8141418,23.4977415 85.7576537,24.8649214 84.8664194,26.3190299 L84.8664194,22.1350137 C84.8664194,20.9346099 84.5156,20.0604027 83.8139611,19.5319641 C83.1195806,18.9970015 82.1445444,18.7273456 80.90095,18.7273456 L74.6733,18.7273456 L69.7666667,55.4897124 L81.6025889,55.4897124 L83.77525,39.0124303 C84.4018861,36.6420677 85.1422361,34.706634 86.0156556,33.1930814 C86.8866556,31.6795288 87.8568528,30.5465389 88.9383444,29.7962866 C90.0101583,29.035161 91.1884278,28.637201 92.4779917,28.5850095 C93.7602972,28.5415166 95.1369611,28.802474 96.6152417,29.3722309 L98.8,19.1948942 C97.5564056,18.6773288 96.3128111,18.4533404 95.0788944,18.5381515 Z M116.948388,27.3058397 C118.08594,26.0689142 119.401234,25.4523427 120.908489,25.4523427 C121.765208,25.4523427 122.394416,25.6793015 122.780117,26.1426758 C123.172927,26.60605 123.366667,27.0977942 123.366667,27.6197995 C123.366667,28.1418047 123.260021,28.6278749 123.028956,29.0685533 C122.808556,29.5092316 122.371309,29.9272141 121.729659,30.3168268 C121.086232,30.7064394 120.172636,31.0733562 118.999536,31.4194684 C117.826436,31.7580153 116.304961,32.0814316 114.433333,32.3840434 C114.977225,30.2373912 115.819724,28.5389827 116.948388,27.3039484 L116.948388,27.3058397 Z M129.552107,44.3859433 C129.201788,44.2148807 128.810693,44.1252528 128.413404,44.1249852 C127.810702,44.1249852 127.274702,44.2097966 126.805404,44.3685461 C126.326578,44.5294703 125.876338,44.7317129 125.445156,44.9861471 C125.013973,45.2471052 124.563733,45.510238 124.094436,45.790768 C123.583622,46.0862558 123.052028,46.3506867 122.503111,46.5823411 C121.909938,46.8367752 121.221476,47.0477164 120.435342,47.2086406 C119.649209,47.3695648 118.720142,47.4543762 117.648142,47.4543762 C115.377884,47.4543762 113.655538,46.8889669 112.485867,45.7559736 C111.328107,44.6229803 110.713493,42.8310677 110.665849,40.3802358 C115.320711,39.9670521 119.18944,39.3929442 122.264889,38.6492135 C125.337956,37.9141814 127.791644,37.0095265 129.611662,35.9439474 C131.429298,34.8892416 132.703787,33.6801355 133.442276,32.3275025 C134.168853,30.9770441 134.533333,29.4787094 134.533333,27.841197 C134.533333,26.7321249 134.235556,25.6274021 133.632853,24.5118061 C132.991943,23.3580624 132.094612,22.3389464 130.998116,21.519486 C129.849884,20.6322283 128.432462,19.9058948 126.73632,19.3491841 C125.052089,18.7989974 123.127253,18.520642 120.952284,18.520642 C118.748729,18.520642 116.671431,18.7902988 114.727538,19.3317869 C112.825661,19.8564903 111.013506,20.6214007 109.343716,21.6042974 C107.706473,22.5771228 106.221492,23.7483578 104.929458,25.085914 C103.624287,26.4330143 102.507964,27.9232437 101.606258,29.5222024 C100.695745,31.1579599 99.9985497,32.8855624 99.52896,34.6696018 C99.0501333,36.4941342 98.8,38.3621595 98.8,40.2802019 C98.8,42.561411 99.2025956,44.6490761 99.9982578,46.5149269 C100.801067,48.3851269 101.923093,49.9878448 103.378631,51.3143821 C104.860869,52.6588684 106.63131,53.7094199 108.579022,54.4002121 C110.599147,55.1265456 112.812231,55.4897124 115.215893,55.4897124 C117.150258,55.4897124 118.941689,55.3461854 120.578276,55.0765286 C122.174226,54.8100441 123.730221,54.3728245 125.21408,53.7739126 C126.707565,53.1592531 128.126382,52.4034215 129.447289,51.5187993 C130.828978,50.6054458 132.234489,49.5333427 133.670969,48.2807436 L130.528818,45.0622599 C130.248486,44.7875927 129.917999,44.5594854 129.552107,44.388118 L129.552107,44.3859433 Z M154.478938,16.6862995 L154.518463,16.3654607 C154.701267,14.8704414 155.049584,13.558122 155.560943,12.4440986 C156.058927,11.3486809 156.873634,10.393822 157.920108,9.67909274 C158.982351,8.95720563 160.353384,8.40910615 162.045561,8.03479431 C163.735267,7.66939466 165.872103,7.48669484 168.461009,7.48669484 C169.071181,7.48669484 169.65912,7.39980102 170.239647,7.23492557 C170.830056,7.07005011 171.178373,6.6779139 171.311771,6.06074498 L172.5,0.680012322 C171.499373,0.439704188 170.477927,0.276470306 169.446671,0.192070105 C168.258442,0.0873519128 167.117149,0.0361068399 166.007971,0.0361068399 C162.383996,0.0361068399 159.214562,0.452751563 156.479906,1.27935687 C153.745249,2.11487436 151.43549,3.26231839 149.560509,4.72168895 C147.717267,6.14744612 146.214536,7.89620798 145.143558,9.86179257 C144.067328,11.8351871 143.377816,13.9616626 143.105535,16.1471122 L143.028955,16.6862995 L137.712803,16.6862995 L137.16192,21.1735854 C137.055695,21.9378054 137.250851,22.5037293 137.732566,22.8669009 C138.226632,23.2345286 138.901032,23.5197185 139.78294,23.7024184 L141.993886,24.1725362 L136.766667,62.421413 L141.761675,62.421413 C143.550195,62.421413 144.93111,62.038189 145.879717,61.2650568 C146.825853,60.4919246 147.569423,59.4313744 148.103014,58.074494 L150.23738,51.864928 L153.918173,24.2416056 L160.857331,24.2416056 L161.88993,16.6885275 L154.478938,16.6885275 L154.478938,16.6862995 Z M168.220269,18.520642 L165.840686,37.568472 L163.566667,55.4897124 L172.392237,55.4897124 L176.966667,18.520642 L168.220269,18.520642 Z M208.988572,18.5381515 C207.704204,18.6396447 206.462751,19.0041532 205.359406,19.6037274 C204.183556,20.2256757 203.036739,21.1064068 201.923794,22.2393966 C200.712801,23.4934315 199.655841,24.8612212 198.771258,26.3190299 L198.771258,22.1350137 C198.771258,20.9346099 198.420439,20.0604027 197.7188,19.5319641 C197.017161,18.9970015 196.049383,18.7273456 194.793692,18.7273456 L188.566042,18.7273456 L183.666667,55.4897124 L195.49775,55.4897124 L197.680089,39.0124303 C198.297047,36.6420677 199.047075,34.706634 199.910817,33.1930814 C200.784236,31.6795288 201.761692,30.5465389 202.835925,29.7962866 C203.84177,29.0619118 205.083427,28.6373036 206.377992,28.5850095 C207.660297,28.5415166 209.044219,28.802474 210.524919,29.3722309 L212.7,19.1948942 C211.456406,18.6773288 210.222489,18.4533404 208.988572,18.5381515 Z M229.3428,25.7491826 C230.249533,25.7491826 231.060233,25.8513912 231.7615,26.0601577 C232.453833,26.2645749 233.083633,26.4994373 233.639733,26.769094 C234.189133,27.0300521 234.700567,27.2692638 235.187433,27.4780303 C235.663133,27.6802729 236.147767,27.7911801 236.643567,27.7911801 C237.1282,27.7911801 237.525733,27.6976701 237.820533,27.5128247 C238.117567,27.3258047 238.432467,27.0235282 238.7831,26.6103445 L241.733333,22.8047049 C240.429067,21.6086467 238.774167,20.5952593 236.768633,19.7688918 C234.7631,18.9338257 232.489567,18.520642 229.934633,18.520642 C227.373,18.520642 225.1419,18.8903327 223.219,19.6253648 C221.3028,20.3669209 219.7015,21.3368153 218.406167,22.5524453 C217.144576,23.7258563 216.152105,25.1458012 215.4939,26.719077 C214.85241,28.2565394 214.522513,29.9003451 214.5224,31.5598506 C214.5224,32.8929118 214.721167,34.032429 215.1254,34.9762276 C215.538567,35.9287248 216.067867,36.7224725 216.7334,37.3639946 C217.392802,38.0107411 218.151532,38.5536485 218.982367,38.9732365 C219.819867,39.4038175 220.673,39.7778575 221.5641,40.0975312 C222.444033,40.4237289 223.3061,40.7129575 224.1436,40.9826142 C224.9811,41.2435724 225.727033,41.5480235 226.392567,41.8742212 C227.0581,42.2134668 227.5874,42.6092533 227.993867,43.0746287 C228.395867,43.5378294 228.603567,44.1184612 228.603567,44.8360961 C228.603567,45.7559736 228.208267,46.5584199 227.4266,47.2412604 C226.636,47.9241008 225.43,48.2611718 223.810833,48.2611718 C222.6495,48.2611718 221.7249,48.1176448 221.005767,47.847988 C220.365034,47.6016032 219.748379,47.2995576 219.163267,46.9455078 C218.6496,46.6258341 218.1739,46.3213829 217.722767,46.0430276 C217.246919,45.7613623 216.698305,45.6180037 216.141567,45.6298438 C215.476033,45.6298438 214.9177,45.7646722 214.466567,46.0256303 C214.008733,46.2952871 213.613433,46.6584538 213.2628,47.1216545 L210.466667,51.0621225 C211.007133,51.6862474 211.7084,52.2668793 212.561533,52.8083674 C213.425833,53.3476809 214.379467,53.8195802 215.4202,54.2066681 C216.4654,54.6046293 217.579833,54.9156044 218.7568,55.1439428 C219.935642,55.373039 221.134742,55.4888514 222.336833,55.4897124 C224.862733,55.4897124 227.147433,55.1352442 229.179767,54.4350065 C231.203167,53.7260702 232.931767,52.7822716 234.3611,51.601436 C237.160554,49.2861283 238.776814,45.8921439 238.7831,42.3156754 C238.7831,41.0413298 238.577633,39.9540042 238.1734,39.0254281 C237.789815,38.1430594 237.247542,37.3344532 236.5721,36.6376611 C235.902718,35.9669965 235.135977,35.3955107 234.296333,34.9414332 C233.452133,34.4869311 232.587833,34.0737474 231.696733,33.7192792 C230.84249,33.3673945 229.9762,33.0439092 229.099367,32.7493848 C228.319675,32.4892439 227.561806,32.1707959 226.832533,31.7968876 C226.232449,31.4994864 225.690495,31.1020449 225.231233,30.6225759 C224.827272,30.1869002 224.609214,29.6175797 224.621533,29.0307312 C224.621533,28.0608368 224.978867,27.2757877 225.709167,26.6603614 C226.437233,26.0514591 227.643233,25.7491826 229.3428,25.7491826 Z M260.540645,41.3023065 L260.711188,40.0076538 L261.025473,37.7006578 L262.969659,23.1154143 L271.984053,23.1154143 L273,15.5195307 L263.985605,15.5195307 L265.452272,4.65724063 L258.930236,4.65724063 C257.60244,4.65724063 256.720491,5.23288687 256.284389,6.37756271 L252.8979,15.4423368 L246.794912,16.5936292 L246.254048,20.9297231 C246.12005,21.6465239 246.234557,22.1868815 246.604878,22.5552069 C246.965454,22.9301489 247.421047,23.1154143 247.959474,23.1154143 L251.192474,23.1154143 L249.126473,38.3049761 C248.97542,39.5025849 248.851168,40.4642009 248.756151,41.1876183 C248.67088,41.9220635 248.605099,42.5087375 248.566118,42.9454346 C248.534066,43.2851137 248.515376,43.6257177 248.510083,43.9666002 L248.510083,44.5797406 C248.558809,45.9162985 248.841423,47.1139074 249.343305,48.1637449 C249.847624,49.211377 250.549285,50.1112377 251.438543,50.8633273 C252.339982,51.6132113 253.402219,52.191063 254.644744,52.5836494 C255.897014,52.9784412 257.29059,53.1791455 258.844964,53.1791455 C260.73477,53.1743311 262.612184,52.9027264 264.409526,52.3741229 C266.264885,51.8252224 268.009915,51.0081715 269.576966,49.9546443 L266.93112,44.683401 C266.79978,44.4165889 266.623938,44.1696281 266.409747,43.9511614 C266.239204,43.7923624 265.973645,43.7151685 265.613069,43.7151685 C265.395665,43.7108536 265.180491,43.7555723 264.986934,43.8452954 C264.809083,43.9246949 264.609304,44.0217387 264.409526,44.1320157 C264.179464,44.2464037 263.938014,44.3409241 263.688374,44.414325 C263.354449,44.5094803 263.005309,44.5534614 262.655373,44.5444519 C261.904986,44.5444519 261.356813,44.308459 261.005983,43.8452954 C260.638326,43.3273286 260.453113,42.7204914 260.474864,42.1051235 L260.474864,41.9066248 C260.474864,41.8007588 260.5041,41.597849 260.540645,41.3023065 Z" id="Shape" fill="url(#linearGradient-1)" fill-rule="nonzero"></path>
                </g>
            </g>
        </g>
    </g>
</svg>